<?xml version="1.0" encoding="UTF-8"?>
<!--
  Adaptive-icon FOREGROUND layer. 108x108. Fully transparent background —
  the adaptive-background XML supplies the dark tile.

  The mark is intentionally scaled + centered so that under the strictest
  circular mask (diameter 66 out of 108) the compass ring and arrow stay
  fully visible. The outer radar arcs extend beyond the safe zone by design
  so square/rounded-square masks read a fuller radiating gesture.
-->
<svg xmlns="http://www.w3.org/2000/svg" viewBox="0 0 108 108" width="108" height="108">
  <defs>
    <linearGradient id="arcSoft" x1="0" y1="0" x2="1" y2="1">
      <stop offset="0" stop-color="#88C6A5" stop-opacity="0.95"/>
      <stop offset="1" stop-color="#5AA37D" stop-opacity="0.85"/>
    </linearGradient>
    <linearGradient id="arcMid" x1="0" y1="0" x2="1" y2="1">
      <stop offset="0" stop-color="#5AA37D" stop-opacity="1"/>
      <stop offset="1" stop-color="#3E7A5B" stop-opacity="1"/>
    </linearGradient>
  </defs>

  <!-- Radar arcs. The outermost arc (r=44) is intentionally close to the
       safe-zone boundary but still inside the 108 canvas so no mask ever
       cuts it off; it just gets hidden under a circular mask, which is
       the desired adaptive behavior. -->
  <path d="M 61.639 10.437 A 44 44 0 0 1 97.563 45.361"
        fill="none" stroke="url(#arcSoft)" stroke-width="3.2"
        stroke-linecap="round" opacity="0.55"/>
  <path d="M 47.750 18.281 A 36 36 0 0 1 89.719 39.750"
        fill="none" stroke="url(#arcSoft)" stroke-width="3.2"
        stroke-linecap="round" opacity="0.78"/>
  <path d="M 40.000 29.373 A 28 28 0 0 1 82.000 30.006"
        fill="none" stroke="url(#arcMid)" stroke-width="3.6"
        stroke-linecap="round"/>

  <circle cx="97.5" cy="45.4" r="2.4" fill="#88C6A5"/>
  <circle cx="61.6" cy="10.4" r="1.8" fill="#88C6A5" opacity="0.75"/>

  <!-- Compass ring safely inside the 66-diameter circular mask. -->
  <circle cx="54" cy="54" r="22" fill="none" stroke="#5AA37D" stroke-width="2.4"/>
  <g stroke="#5AA37D" stroke-width="2" stroke-linecap="round">
    <line x1="54" y1="30" x2="54" y2="33.5"/>
    <line x1="78" y1="54" x2="74.5" y2="54"/>
    <line x1="54" y1="78" x2="54" y2="74.5"/>
    <line x1="30" y1="54" x2="33.5" y2="54"/>
  </g>

  <g transform="rotate(30 54 54)">
    <path d="M 54 40 L 62 66 L 54 61 L 46 66 Z" fill="#F4F6F8"/>
    <path d="M 54 40 L 62 66 L 54 61 Z" fill="#5AA37D"/>
    <line x1="54" y1="40" x2="54" y2="61"
          stroke="#0E1215" stroke-width="0.8" stroke-linecap="round"/>
  </g>
</svg>
